# xmcd
#
# Track frame offsets:
#	150
#	16283
#	72951
#	87465
#	146239
#	166033
#	198544
#	233148
#	243296
#	259102
#	286503
#	302036
#
# Disc length: 4240 seconds
#
# Revision: 0
# Processed by: cddbd v1.5.2PL0 Copyright (c) Steve Scherf et al.
# Submitted via: audiograbber 1.83.01
#
DISCID=a0108e0c
DTITLE=Reiner Schöne and die Kowboys - Schönes Chaos
DYEAR=2005
DGENRE=Songs and Stories
TTITLE0=Reiner Schöne - Weit ab vom Kurs
TTITLE1=Reiner Schöne - In Wie spiel'n sie schlechtes Theater
TTITLE2=Reiner Schöne - Ich bin raus
TTITLE3=Reiner Schöne - Let the sunshine in
TTITLE4=Reiner Schöne - Happy Happy Birthday
TTITLE5=Reiner Schöne - Me and Bobby McGhee/Der Thüringer Fernwehblues
TTITLE6=Reiner Schöne - Wo is'n der Kassettenrekorder
TTITLE7=Reiner Schöne - Kondome mit Erdbeergeschmack
TTITLE8=Reiner Schöne - Lass die Schmetterlinge fliegen
TTITLE9=Reiner Schöne - Das andere Ende des Regenbogens
TTITLE10=Reiner Schöne - Epilogue
TTITLE11=Reiner Schöne - Long Distance Lovers
EXTD=
EXTT0=
EXTT1=
EXTT2=
EXTT3=
EXTT4=
EXTT5=
EXTT6=
EXTT7=
EXTT8=
EXTT9=
EXTT10=
EXTT11=
PLAYORDER=
